<svg width="24" height="24" viewBox="0 0 24 24" fill="none" xmlns="http://www.w3.org/2000/svg">
  <path d="M10.29 3.86L1.82 18C1.64584 18.3024 1.5729 18.6453 1.61093 18.9873C1.64896 19.3293 1.79554 19.6507 2.028 19.9041C2.26046 20.1575 2.567 20.3303 2.904 20.3969C3.241 20.4635 3.592 20.4209 3.91 20.274L21.09 12.274C21.4104 12.1259 21.6804 11.8813 21.8638 11.5717C22.0472 11.2621 22.1355 10.9027 22.1165 10.5418C22.0975 10.1809 21.9721 9.83519 21.757 9.555C21.5419 9.27481 21.2476 9.07336 20.91 8.98L10.29 3.86Z" stroke="#fbbf24" stroke-width="2" stroke-linecap="round" stroke-linejoin="round"/>
  <path d="M22 12L12 2L2 12" stroke="#fbbf24" stroke-width="2" stroke-linecap="round" stroke-linejoin="round"/>
</svg>
