<svg width="24" height="24" viewBox="0 0 24 24" fill="none" xmlns="http://www.w3.org/2000/svg">
  <path d="M3 4H5V20H3V4Z" fill="#94a3b8"/>
  <path d="M7 4H8V20H7V4Z" fill="#94a3b8"/>
  <path d="M10 4H11V20H10V4Z" fill="#94a3b8"/>
  <path d="M13 4H14V20H13V4Z" fill="#94a3b8"/>
  <path d="M16 4H17V20H16V4Z" fill="#94a3b8"/>
  <path d="M19 4H21V20H19V4Z" fill="#94a3b8"/>
  <path d="M3 8H5V12H3V8Z" fill="#94a3b8"/>
  <path d="M7 8H8V12H7V8Z" fill="#94a3b8"/>
  <path d="M10 8H11V12H10V8Z" fill="#94a3b8"/>
  <path d="M13 8H14V12H13V8Z" fill="#94a3b8"/>
  <path d="M16 8H17V12H16V8Z" fill="#94a3b8"/>
  <path d="M19 8H21V12H19V8Z" fill="#94a3b8"/>
</svg>
