<svg width="64" height="64" viewBox="0 0 64 64" fill="none" xmlns="http://www.w3.org/2000/svg">
  <rect width="64" height="64" rx="16" fill="url(#gradient2)"/>
  <defs>
    <linearGradient id="gradient2" x1="0" y1="0" x2="64" y2="64">
      <stop offset="0%" stop-color="#3B82F6"/>
      <stop offset="100%" stop-color="#0EA5E9"/>
    </linearGradient>
  </defs>
  <!-- Circular Arrows -->
  <path d="M32 16C40.8366 16 48 23.1634 48 32C48 40.8366 40.8366 48 32 48" stroke="white" stroke-width="3" stroke-linecap="round"/>
  <path d="M32 48C23.1634 48 16 40.8366 16 32C16 23.1634 23.1634 16 32 16" stroke="white" stroke-width="3" stroke-linecap="round" stroke-dasharray="4 4"/>
  <!-- Arrow Heads -->
  <path d="M48 32L44 28L48 28L48 32Z" fill="white"/>
  <path d="M16 32L20 36L16 36L16 32Z" fill="white"/>
  <!-- Database Icon -->
  <ellipse cx="32" cy="28" rx="8" ry="4" fill="white" opacity="0.3"/>
  <ellipse cx="32" cy="32" rx="8" ry="4" fill="white" opacity="0.5"/>
  <ellipse cx="32" cy="36" rx="8" ry="4" fill="white"/>
</svg>

