<svg width="48" height="48" viewBox="0 0 48 48" fill="none" xmlns="http://www.w3.org/2000/svg">
  <defs>
    <linearGradient id="pixGrad" x1="0" y1="0" x2="48" y2="48">
      <stop offset="0%" stop-color="#10B981"/>
      <stop offset="100%" stop-color="#059669"/>
    </linearGradient>
  </defs>
  <!-- PIX background -->
  <rect x="12" y="12" width="24" height="24" rx="6" fill="url(#pixGrad)"/>
  <!-- PIX text -->
  <text x="24" y="28" font-family="Arial" font-size="12" font-weight="bold" fill="white" text-anchor="middle">PIX</text>
  <!-- QR code pattern -->
  <rect x="14" y="14" width="2" height="2" fill="white" opacity="0.3"/>
  <rect x="18" y="14" width="2" height="2" fill="white" opacity="0.3"/>
  <rect x="22" y="14" width="2" height="2" fill="white" opacity="0.3"/>
  <rect x="26" y="14" width="2" height="2" fill="white" opacity="0.3"/>
  <rect x="30" y="14" width="2" height="2" fill="white" opacity="0.3"/>
  <rect x="14" y="18" width="2" height="2" fill="white" opacity="0.3"/>
  <rect x="30" y="18" width="2" height="2" fill="white" opacity="0.3"/>
  <rect x="14" y="22" width="2" height="2" fill="white" opacity="0.3"/>
  <rect x="30" y="22" width="2" height="2" fill="white" opacity="0.3"/>
  <rect x="14" y="30" width="2" height="2" fill="white" opacity="0.3"/>
  <rect x="18" y="30" width="2" height="2" fill="white" opacity="0.3"/>
  <rect x="22" y="30" width="2" height="2" fill="white" opacity="0.3"/>
  <rect x="26" y="30" width="2" height="2" fill="white" opacity="0.3"/>
  <rect x="30" y="30" width="2" height="2" fill="white" opacity="0.3"/>
</svg>

