<svg width="40" height="40" viewBox="0 0 40 40" fill="none" xmlns="http://www.w3.org/2000/svg">
  <!-- Gear -->
  <circle cx="20" cy="20" r="6" fill="none" stroke="#9CA3AF" stroke-width="2.5"/>
  <circle cx="20" cy="20" r="3" fill="#9CA3AF"/>
  <!-- Gear teeth -->
  <rect x="18.5" y="8" width="3" height="4" rx="1" fill="#9CA3AF"/>
  <rect x="18.5" y="28" width="3" height="4" rx="1" fill="#9CA3AF"/>
  <rect x="8" y="18.5" width="4" height="3" rx="1" fill="#9CA3AF"/>
  <rect x="28" y="18.5" width="4" height="3" rx="1" fill="#9CA3AF"/>
  <!-- Diagonal teeth -->
  <rect x="12" y="11" width="3" height="3" rx="1" fill="#9CA3AF" transform="rotate(-45 13.5 12.5)"/>
  <rect x="25" y="11" width="3" height="3" rx="1" fill="#9CA3AF" transform="rotate(45 26.5 12.5)"/>
  <rect x="12" y="26" width="3" height="3" rx="1" fill="#9CA3AF" transform="rotate(45 13.5 27.5)"/>
  <rect x="25" y="26" width="3" height="3" rx="1" fill="#9CA3AF" transform="rotate(-45 26.5 27.5)"/>
</svg>

