<svg width="24" height="24" viewBox="0 0 24 24" fill="none" xmlns="http://www.w3.org/2000/svg">
  <path d="M16 3H4C2.89543 3 2 3.89543 2 5V17C2 18.1046 2.89543 19 4 19H16C17.1046 19 18 18.1046 18 17V5C18 3.89543 17.1046 3 16 3Z" stroke="#94a3b8" stroke-width="2" stroke-linecap="round" stroke-linejoin="round"/>
  <path d="M18 9H20C20.5523 9 21 9.44772 21 10V14C21 14.5523 20.5523 15 20 15H18V9Z" stroke="#94a3b8" stroke-width="2" stroke-linecap="round" stroke-linejoin="round"/>
  <path d="M6 15H8" stroke="#94a3b8" stroke-width="2" stroke-linecap="round" stroke-linejoin="round"/>
  <path d="M10 15H12" stroke="#94a3b8" stroke-width="2" stroke-linecap="round" stroke-linejoin="round"/>
  <circle cx="6" cy="7" r="1" fill="#94a3b8"/>
  <circle cx="10" cy="7" r="1" fill="#94a3b8"/>
</svg>
