<svg width="64" height="64" viewBox="0 0 64 64" fill="none" xmlns="http://www.w3.org/2000/svg">
  <rect width="64" height="64" rx="16" fill="url(#gradient3)"/>
  <defs>
    <linearGradient id="gradient3" x1="0" y1="0" x2="64" y2="64">
      <stop offset="0%" stop-color="#A855F7"/>
      <stop offset="100%" stop-color="#EC4899"/>
    </linearGradient>
  </defs>
  <!-- Boxes/Packages -->
  <rect x="16" y="32" width="12" height="12" rx="2" fill="white" opacity="0.9"/>
  <rect x="20" y="20" width="12" height="12" rx="2" fill="white" opacity="0.7"/>
  <rect x="36" y="32" width="12" height="12" rx="2" fill="white" opacity="0.9"/>
  <rect x="32" y="20" width="12" height="12" rx="2" fill="white" opacity="0.7"/>
  <!-- Checkmarks -->
  <path d="M20 38L22 40L25 37" stroke="#A855F7" stroke-width="2" stroke-linecap="round" stroke-linejoin="round"/>
  <path d="M40 38L42 40L45 37" stroke="#A855F7" stroke-width="2" stroke-linecap="round" stroke-linejoin="round"/>
  <!-- Bar Chart in background -->
  <rect x="18" y="50" width="4" height="8" rx="1" fill="white" opacity="0.5"/>
  <rect x="26" y="46" width="4" height="12" rx="1" fill="white" opacity="0.6"/>
  <rect x="34" y="48" width="4" height="10" rx="1" fill="white" opacity="0.5"/>
  <rect x="42" y="44" width="4" height="14" rx="1" fill="white" opacity="0.7"/>
</svg>

